# xmcd
#
# Track frame offsets:
#	150
#	22419
#	43259
#	61443
#	81067
#	85357
#	116782
#	132875
#	152225
#	170022
#	192448
#	213016
#	237753
#	266080
#	271260
#	293898
#
# Disc length: 4273 seconds
#
# Revision: 0
# Processed by: cddbd v1.5.1PL0 Copyright (c) Steve Scherf et al.
# Submitted via: audiograbber 1.81.03
#
DISCID=f110af10
DTITLE=Stephen Simmons - Last Call
DYEAR=2004
DGENRE=Alt Country
TTITLE0=The Good Life
TTITLE1=Last Call
TTITLE2=County Lines
TTITLE3=Betty I'm Married
TTITLE4=Calling
TTITLE5=Loserville
TTITLE6=Dirty Side of Me
TTITLE7=Forgive Me Father
TTITLE8=Shirley's Stables
TTITLE9=Lay on the Tracks
TTITLE10=Just Like Love
TTITLE11=Shut-up Samantha
TTITLE12=Grey Skies
TTITLE13=Baptism
TTITLE14=Bow Down
TTITLE15=Sweet Salvation
EXTD=
EXTT0=
EXTT1=
EXTT2=
EXTT3=
EXTT4=
EXTT5=
EXTT6=
EXTT7=
EXTT8=
EXTT9=
EXTT10=
EXTT11=
EXTT12=
EXTT13=
EXTT14=
EXTT15=
PLAYORDER=
